<?xml version="1.0" encoding="utf-8"?>
<!-- Generator: Adobe Illustrator 19.0.0, SVG Export Plug-In . SVG Version: 6.00 Build 0)  -->
<svg version="1.1" id="Layer_1" xmlns="http://www.w3.org/2000/svg" xmlns:xlink="http://www.w3.org/1999/xlink" x="0px" y="0px"
	 viewBox="-49 59 184.7 165.5" style="enable-background:new -49 59 184.7 165.5;" xml:space="preserve">
<style type="text/css">
	.st0{fill:#1D1E1C;}
	.st1{fill:none;stroke:#1D1E1C;stroke-miterlimit:10;}
	.st2{fill:none;stroke:#1D1E1C;stroke-width:8;stroke-linecap:round;stroke-linejoin:round;}
</style>
<g id="XMLID_19_">
	<g id="XMLID_32_">
		<path id="XMLID_47_" class="st0" d="M-38.2,105.1h-9.6V62.2h9.6v19.2c1-3.6,5.4-5.1,7.9-5.1c7.5,0,11.2,5.1,11.2,13.9v14.9h-9.6
			V90.4c0-3.3-2.6-4.9-4.6-4.9c-2.2,0-4.9,1.2-4.9,4.8C-38.2,90.3-38.2,105.1-38.2,105.1z"/>
		<path id="XMLID_44_" class="st0" d="M5.2,77h9.6v28.1H5.2v-3.2c-1.7,2.5-4.7,3.7-7.8,3.7c-6.9,0-13.7-5.5-13.7-14.6
			s6.8-14.7,13.7-14.7c2.8,0,6,1.3,7.8,3.7C5.2,80,5.2,77,5.2,77z M-0.7,96.9c3.2,0,5.8-2.7,5.8-5.8c0-3.2-2.7-5.8-5.8-5.8
			s-5.8,2.7-5.8,5.8S-3.8,96.9-0.7,96.9z"/>
		<path id="XMLID_42_" class="st0" d="M31.8,77h5.9v7.1h-5.9v21h-9.5v-21h-5.1V77h5.1V66.9h9.5C31.8,66.9,31.8,77,31.8,77z"/>
		<path id="XMLID_40_" class="st0" d="M67.2,98.7c-2.8,4.2-7,6.9-12.4,6.9c-8.4,0-15.6-5.7-15.6-14.6s7.2-14.7,15.6-14.7
			c5.4,0,9.6,2.8,12.4,6.9l-7.8,4.7c-1-1.7-2.8-2.8-4.9-2.8c-3.2,0-5.8,2.7-5.8,5.8c0,3.2,2.7,5.8,5.8,5.8c2,0,3.7-1,4.8-2.6
			L67.2,98.7z"/>
		<path id="XMLID_38_" class="st0" d="M79.6,105.1H70V62.2h9.6v19.2c1-3.6,5.4-5.1,7.9-5.1c7.5,0,11.2,5.1,11.2,13.9v14.9h-9.6V90.4
			c0-3.3-2.6-4.9-4.6-4.9c-2.2,0-4.9,1.2-4.9,4.8V105.1L79.6,105.1z"/>
		<path id="XMLID_35_" class="st0" d="M108,62.2c3.2,0,5.7,2.4,5.7,5.4s-2.5,5.5-5.7,5.5c-3.1,0-5.8-2.5-5.8-5.5
			S104.8,62.2,108,62.2z M103.2,105.1h9.6V77h-9.6V105.1z"/>
		<path id="XMLID_33_" class="st0" d="M129.8,77h5.9v7.1h-5.9v21h-9.5v-21h-5.1V77h5.1V66.9h9.5V77z"/>
	</g>
	<g id="XMLID_22_">
		<path id="XMLID_30_" class="st0" d="M28.2,114.7v8.7h3.4v2.1h-5.9v-10.8C25.7,114.7,28.2,114.7,28.2,114.7z"/>
		<path id="XMLID_27_" class="st0" d="M42.2,123.5h-4.1l-0.8,2.1h-2.6l4.3-10.9h2.3l4.3,10.9H43L42.2,123.5z M41.5,121.6l-1.3-3.6
			l-1.4,3.6H41.5z"/>
		<path id="XMLID_23_" class="st0" d="M52.4,114.7c0.6,0,1.9,0,2.8,0.8c0.7,0.7,0.8,1.6,0.8,2.1c0,0.4-0.1,0.9-0.4,1.4
			s-0.7,0.7-0.9,0.8c0.5,0.1,1.1,0.3,1.5,0.7s0.7,1,0.7,1.9c0,1.1-0.4,1.8-0.8,2.2c-0.9,0.9-2.2,0.9-2.9,0.9h-4.1v-10.8H52.4z
			 M51.6,119.1H52c0.3,0,0.9,0,1.3-0.3c0.2-0.2,0.4-0.5,0.4-1s-0.2-0.8-0.4-0.9c-0.4-0.3-0.8-0.3-1.3-0.3h-0.4V119.1z M51.6,123.6
			h0.6c0.6,0,1.4,0,1.9-0.4c0.2-0.2,0.4-0.5,0.4-0.9s-0.2-0.7-0.3-0.9c-0.4-0.4-1.3-0.4-1.8-0.4h-0.7L51.6,123.6L51.6,123.6z"/>
	</g>
	<line id="XMLID_2_" class="st1" x1="17.4" y1="120.3" x2="-49" y2="120.3"/>
	<line id="XMLID_1_" class="st1" x1="131.4" y1="120.3" x2="65.1" y2="120.3"/>
</g>
<g id="XMLID_18_">
	<path id="XMLID_21_" class="st2" d="M61.6,170.5c0-11.8-9.7-21.5-21.5-21.5s-21.5,9.7-21.5,21.5c0,25.1-10.8,32.3-10.8,32.3h64.5
		C72.4,202.8,61.6,195.6,61.6,170.5"/>
	<path id="XMLID_20_" class="st2" d="M46.2,217.1c-2.2,3.6-6.5,4.7-9.7,2.5c-1.1-0.7-2.2-1.4-2.5-2.5"/>
</g>
</svg>
